HIERARCHY
ROOT Hips
{
  OFFSET 3.13124 94.3669 -3.18751
  CHANNELS  6 Xposition Yposition Zposition Zrotation Xrotation Yrotation
  JOINT LeftUpLeg
  {
    OFFSET 8.64259 1.95398 -2.38835
    CHANNELS 3 Zrotation Xrotation Yrotation
    JOINT LeftLeg
    {
      OFFSET 43.7702 0 0
      CHANNELS 3 Zrotation Xrotation Yrotation
      JOINT LeftFoot
      {
        OFFSET 40.6238 0 0
        CHANNELS 3 Zrotation Xrotation Yrotation
        JOINT LeftToeBase
        {
          OFFSET 12.7242 0 0
          CHANNELS 3 Zrotation Xrotation Yrotation
          End Site
          {
            OFFSET 0 0 0
          }
        }
      }
    }
  }
  JOINT RightUpLeg
  {
    OFFSET -8.2249 1.95398 -2.59336
    CHANNELS 3 Zrotation Xrotation Yrotation
    JOINT RightLeg
    {
      OFFSET 43.5653 0 0
      CHANNELS 3 Zrotation Xrotation Yrotation
      JOINT RightFoot
      {
        OFFSET 40.6238 0 0
        CHANNELS 3 Zrotation Xrotation Yrotation
        JOINT RightToeBase
        {
          OFFSET 12.7242 0 0
          CHANNELS 3 Zrotation Xrotation Yrotation
          End Site
          {
            OFFSET 0 0 0
          }
        }
      }
    }
  }
  JOINT Spine
  {
    OFFSET 0.165834 0.87714 6.61349
    CHANNELS 3 Zrotation Xrotation Yrotation
    JOINT Spine1
    {
      OFFSET 7.38962 1.71661e-005 0
      CHANNELS 3 Zrotation Xrotation Yrotation
      JOINT Spine2
      {
        OFFSET 11.9445 1.14441e-005 0
        CHANNELS 3 Zrotation Xrotation Yrotation
        JOINT Spine3
        {
          OFFSET 14.7254 4.19617e-005 0
          CHANNELS 3 Zrotation Xrotation Yrotation
          JOINT Spine4
          {
            OFFSET 10.9679 0 0
            CHANNELS 3 Zrotation Xrotation Yrotation
            JOINT RightShoulder
            {
              OFFSET 2.46616 -1.6653 3.69651
              CHANNELS 3 Zrotation Xrotation Yrotation
              JOINT RightArm
              {
                OFFSET 13.0012 0 0
                CHANNELS 3 Zrotation Xrotation Yrotation
                JOINT RightForeArm
                {
                  OFFSET 28.7848 1.52588e-005 0
                  CHANNELS 3 Zrotation Xrotation Yrotation
                  JOINT RightHand
                  {
                    OFFSET 26.5688 1.52588e-005 0
                    CHANNELS 3 Zrotation Xrotation Yrotation
                    End Site
                    {
                      OFFSET 0 0 0
                    }
                  }
                }
              }
            }
            JOINT LeftShoulder
            {
              OFFSET 2.38034 -1.29275 -3.75231
              CHANNELS 3 Zrotation Xrotation Yrotation
              JOINT LeftArm
              {
                OFFSET 16.3182 6.10352e-005 0
                CHANNELS 3 Zrotation Xrotation Yrotation
                JOINT LeftForeArm
                {
                  OFFSET 27.0901 0 0
                  CHANNELS 3 Zrotation Xrotation Yrotation
                  JOINT LeftHand
                  {
                    OFFSET 24.5451 1.52588e-005 0
                    CHANNELS 3 Zrotation Xrotation Yrotation
                    End Site
                    {
                      OFFSET 0 0 0
                    }
                  }
                }
              }
            }
            JOINT Neck
            {
              OFFSET 5.0226 -0.0266342 0
              CHANNELS 3 Zrotation Xrotation Yrotation
              JOINT Head
              {
                OFFSET 6.69363 2.86102e-005 0
                CHANNELS 3 Zrotation Xrotation Yrotation
                End Site
                {
                  OFFSET 0 0 0
                }
              }
            }
          }
        }
      }
    }
  }
}
MOTION
Frames:	13
Frame Time:	0.0333333
38.704 68.6049 25.5851 87.4485 -5.9219 84.9407 -165.743 63.8625 70.9007 -78.4055 3.1022 1.32612 70.8473 -1.49973 -0.619414 28.7808 5.49112e-006 6.13372e-006 -141.315 51.4127 40.3967 -114.432 -38.4201 -4.64268 15.6611 7.86039 12.5873 28.7808 1.44588e-005 2.04273e-005 -1.03522 11.0223 -89.7561 4.79497 -1.65372 -1.26779 -6.87548 -1.70782 -1.19282 -29.4107 -1.19709 -1.70457 -9.39804 -1.19708 -1.70458 104.304 -60.6505 -79.0296 21.4111 17.6791 -0.0570742 -5.79883 -4.16177 -34.3288 16.7436 -0.421831 -7.75073 -91.2713 -20.0357 66.5261 -28.5301 -7.48794 -45.8316 2.28166 0.894618 -3.31582 45.5126 -8.19173 -22.5072 76.1514 9.72501 21.1862 -21.1576 -4.59741 -25.9709 
41.1335 66.9021 24.5198 90.8987 -6.34049 84.8349 -164.11 61.1708 68.4948 -83.6095 2.50358 1.41001 74.7804 -0.692992 -0.107247 28.7808 5.49112e-006 6.13372e-006 -136.389 62.9751 38.9781 -116.584 -13.7801 -2.87523 20.6863 -7.09103 -7.21559 28.7808 1.44588e-005 2.04273e-005 -1.22522 12.0635 -89.4087 2.71106 -1.45309 -1.11198 -8.95952 -1.5014 -1.04639 -31.4948 -1.04651 -1.50064 -11.4822 -1.04653 -1.50064 98.7727 -52.5923 -87.1308 26.9131 14.2016 -1.00347 -17.107 -22.6894 -35.114 17.5614 -1.07899 -11.6468 -90.4311 -18.869 67.7491 -23.8487 -11.2946 -47.641 2.26253 -0.0868922 -3.29534 42.5954 -9.87586 -27.7461 77.8858 13.2263 27.6401 -19.8349 -6.82494 -31.9201 
43.2977 65.7906 23.9653 91.9807 -5.49712 88.2625 -166.21 61.1869 72.1358 -88.1106 4.10159 1.64156 78.0711 1.01329 0.703906 28.7808 5.49112e-006 6.13372e-006 -133.109 72.0276 36.8957 -109.985 -24.0436 -3.32752 24.7453 -1.57161 -0.361006 28.7808 1.44588e-005 2.04273e-005 -0.980186 12.7848 -90.1947 1.28004 -1.2195 -1.90347 -10.3917 -1.30209 -1.84794 -32.9174 -0.591308 -2.18807 -12.9047 -0.591299 -2.18806 91.4049 -37.4404 -101.731 36.8437 8.99305 0.582798 -25.5491 -40.8222 -34.5125 2.25972 -0.169578 -11.118 -90.3786 -17.8579 67.3784 -19.905 -14.6746 -47.409 2.26696 0.143743 -3.30012 45.4662 -9.9706 -26.3953 73.374 18.1609 39.5056 -17.2899 -10.2243 -42.1168 
45.0206 64.2468 22.9093 90.5149 -4.5141 87.4483 -160.956 62.8623 65.9596 -91.4781 4.37124 1.78255 79.3069 1.73788 1.02751 28.7808 5.49112e-006 6.13372e-006 -123.38 76.2629 26.8382 -100.322 -34.9642 -3.78063 39.6768 3.21433 3.67619 28.7808 1.44588e-005 2.04273e-005 -0.851305 13.0754 -90.7273 0.70634 -1.57058 -1.84057 -10.9649 -1.65023 -1.77044 -33.493 -0.944043 -2.22849 -13.4803 -0.944061 -2.22852 88.4906 -19.4269 -115.102 49.0271 5.6842 -2.39072 -9.60625 -50.0596 -10.6251 -6.32532 0.434789 -14.4412 -90.983 -18.7155 66.4446 -15.9156 -17.9465 -45.4289 2.26613 0.0968851 -3.29917 46.6095 -9.46496 -24.7931 63.9808 20.5314 53.1275 -14.4072 -14.5534 -52.5394 
46.9523 62.4363 22.102 90.0895 -2.84262 89.236 -158.136 64.7161 63.7092 -96.6678 6.46964 2.08087 79.2511 2.50266 1.35462 28.7808 5.49112e-006 6.13372e-006 -133.299 77.1829 34.7747 -83.7701 -72.3397 -10.158 43.1527 37.1199 32.2566 28.7808 1.44588e-005 2.04273e-005 -0.547139 13.4139 -91.4061 0.0286415 -1.84945 -2.06735 -11.6425 -1.93869 -1.98398 -34.1691 -1.13813 -2.52736 -14.1564 -1.13814 -2.52737 89.2859 -8.95981 -120.622 58.1135 3.20352 -1.81918 -5.15474 -40.01 -5.35471 -10.4028 0.685267 -13.4346 -91.3824 -19.0275 65.7079 -12.5701 -20.414 -42.9489 2.22569 -2.01146 -3.25578 45.3916 -7.70684 -21.4699 56.6662 19.7855 58.8534 -12.071 -16.3605 -56.4403 
49.1265 60.1674 21.4909 90.3703 -1.03805 90.6499 -155.184 66.3222 61.3652 -102.892 9.90184 2.47377 78.2442 2.92972 1.54358 28.7808 5.49112e-006 6.13372e-006 -147.966 81.4152 53.0812 -75.528 -70.1193 -8.62763 50.789 35.4834 26.6227 28.7808 1.44588e-005 2.04273e-005 -0.363073 13.6909 -91.7767 -0.529141 -1.93485 -2.34075 -12.2006 -2.03551 -2.25332 -34.724 -1.14526 -2.81403 -14.7112 -1.14526 -2.81404 90.6459 -2.88121 -122.547 63.1596 2.02424 0.0768585 -4.81812 -34.1878 -5.19487 -13.3357 0.480775 -9.6789 -92.5513 -20.9954 64.2696 -9.68318 -22.4999 -42.1491 2.12105 -7.92608 -3.14283 42.0615 -6.6647 -20.4258 48.3699 16.6023 60.3457 -9.08618 -17.2399 -56.3549 
51.8004 57.0445 20.9511 90.9237 0.515498 91.5192 -149.278 69.2018 56.1451 -111.59 14.8247 3.01985 71.2955 3.05395 1.62193 28.7808 5.49112e-006 6.13372e-006 -175.659 85.3957 84.9094 -74.5434 -58.0119 -5.54056 51.7598 30.9571 22.834 28.7808 1.44588e-005 2.04273e-005 -0.241147 13.8779 -91.9408 -0.903714 -1.85804 -2.48519 -12.5755 -1.96529 -2.40114 -35.0961 -1.0244 -2.92785 -15.0834 -1.0244 -2.92786 91.548 0.240231 -122.982 65.7804 1.62176 1.41468 -4.62386 -30.5807 -5.10774 -26.1441 0.638055 -7.96613 -95.1204 -24.8678 61.2496 -7.15734 -24.243 -41.3519 2.0963 -9.3915 -3.11542 42.6214 -6.22631 -19.1216 41.7837 13.4005 57.3486 -6.36603 -16.2067 -52.8359 
54.7732 52.8979 20.493 90.2144 2.02918 91.5702 -133.555 67.176 39.2149 -116.138 -13.9857 1.5232 70.7144 16.5221 8.42036 28.7808 5.49112e-006 6.13372e-006 94.7567 87.0168 177.342 -79.8818 -48.8438 -4.46047 49.6021 27.4481 21.1071 28.7808 1.44588e-005 2.04273e-005 0.729829 12.3979 -94.5169 1.96003 -1.1009 -7.04293 -9.7302 -1.4141 -6.987 -32.1125 1.04373 -7.05665 -12.0998 1.04374 -7.05663 90.5566 2.46262 -129.785 59.001 13.9642 27.8754 -3.96781 -16.6223 -4.92169 -23.1717 3.01456 -19.9434 -119.494 -45.2085 34.2735 -6.61853 -24.6976 -41.755 2.29321 1.47633 -3.3281 42.518 -6.45376 -19.7011 1.30488 -14.1976 82.9311 6.85195 -32.9664 -64.8903 
57.437 49.0695 19.6609 88.8389 4.23223 90.2244 -126.236 67.3473 32.4231 -123.557 5.02228 2.78627 78.6437 3.37099 1.71586 28.7808 5.49112e-006 6.13372e-006 49.5168 85.7454 -137.363 -83.2982 -47.7563 -4.45512 45.4059 22.5962 18.8002 28.7808 1.44588e-005 2.04273e-005 0.6078 12.2773 -94.0988 2.22713 -0.951691 -6.60647 -9.46009 -1.24165 -6.5587 -31.8617 1.07811 -6.58677 -11.849 1.07814 -6.58678 90.6565 1.47496 -127.861 58.523 13.8719 27.4969 -3.44368 -4.10029 -4.89296 -32.0293 7.26247 -30.3209 -120.612 -46.076 33.3296 -7.68708 -23.9428 -41.9187 2.29607 1.61957 -3.33115 42.0328 -6.1726 -19.1777 -0.451264 -13.8228 78.142 2.52088 -27.6322 -64.5911 
60.2892 44.7761 18.8766 88.6454 6.94757 88.8025 -115.81 65.597 22.3019 -131.365 12.4604 3.4458 74.7542 1.13224 0.713396 28.7808 5.49112e-006 6.13372e-006 0.732504 74.5991 -90.148 -98.3589 -48.1363 -5.04116 29.7034 8.46529 10.0932 28.7808 1.44588e-005 2.04273e-005 0.425971 12.2417 -93.9149 2.30722 -0.992135 -6.46405 -9.37921 -1.27509 -6.41446 -31.7869 0.992132 -6.46406 -11.7742 0.992116 -6.46407 91.4485 2.20883 -126.125 59.0004 13.5224 26.6047 -2.84587 10.1576 -5.00421 -36.9943 15.1388 -49.3249 -122.558 -48.646 32.3867 -9.81023 -22.595 -43.7992 2.28858 1.24455 -3.32311 38.5451 -6.37767 -21.0271 -0.988403 -12.3912 75.822 -3.77961 -21.9205 -65.7304 
63.027 40.893 18.2353 89.8364 8.85141 89.3824 -110.717 64.5378 18.0997 -138.389 16.1901 3.8857 70.1772 -1.14082 -0.507486 28.7808 5.49112e-006 6.13372e-006 -1.18342 69.3212 -88.2791 -105.888 -47.7599 -5.27198 26.7284 8.64421 11.0938 28.7808 1.44588e-005 2.04273e-005 0.48565 12.3849 -94.2193 2.01572 -0.784942 -7.11188 -9.67423 -1.09642 -7.0708 -32.0568 1.38322 -7.02057 -12.044 1.38321 -7.02056 92.7333 4.29099 -124.172 56.8617 13.6961 26.5389 -3.08319 4.60763 -4.94349 -63.5924 22.6659 -41.3588 -126.519 -52.288 29.6379 -12.9063 -20.586 -48.4198 2.19903 -3.46466 -3.22725 33.6885 -5.46091 -20.6954 -1.87387 -12.7594 75.7194 -7.01058 -19.7552 -66.2605 
65.0507 37.8518 17.5692 89.5115 9.14411 92.3327 -103.933 64.9932 12.3176 -143.697 16.345 4.08307 65.5255 -0.675943 -0.45218 28.7808 5.49112e-006 6.13372e-006 -5.32198 70.5152 -84.9752 -109.074 -60.9104 -7.56683 51.2531 23.1315 17.2779 28.7808 1.44588e-005 2.04273e-005 1.23674 12.5568 -94.8178 1.65635 -0.0555571 -7.73919 -10.0376 -0.39513 -7.72938 -32.3994 2.26647 -7.40244 -12.3867 2.26644 -7.40243 94.2431 6.36467 -120.878 58.713 13.0637 25.2253 -2.9746 7.1181 -4.96095 -41.5188 15.9481 -46.3453 -129.04 -54.1979 27.737 -14.9059 -18.994 -50.1396 2.26586 0.131435 -3.29693 25.8723 -4.93274 -23.8927 0.27203 -10.7377 74.8473 -11.7866 -16.399 -65.188 
67.1846 35.4302 16.8274 88.3088 10.2711 94.3537 -99.9334 62.4443 8.60148 -147.316 12.9955 4.00394 63.1542 3.10278 1.6478 28.7808 5.49112e-006 6.13372e-006 -0.832691 62.6088 -88.1575 -114.7 -53.9768 -6.43555 37.5342 12.5666 12.4518 28.7808 1.44588e-005 2.04273e-005 1.43871 12.7474 -94.993 1.28375 0.465605 -8.14379 -10.4127 0.108055 -8.1563 -32.7634 2.88418 -7.62738 -12.7507 2.88416 -7.62737 95.8141 8.75903 -117.098 52.2378 14.0672 26.6563 -5.11848 -36.9128 -5.41405 -64.0404 31.8108 -55.8453 -131.116 -55.4812 26.0179 -18.7482 -15.6529 -52.4398 3.04722 28.9242 -4.11095 55.3366 2.78516 0.927671 4.02066 -8.51033 74.688 -16.9615 -13.643 -66.1163 
